<?xml version="1.0" encoding="UTF-8"?>
<svg version="1.1" xmlns="http://www.w3.org/2000/svg" width="500" height="500">
<path d="M0 0 C165 0 330 0 500 0 C500 165 500 330 500 500 C335 500 170 500 0 500 C0 335 0 170 0 0 Z " fill="#E51A43" transform="translate(0,0)"/>
<path d="M0 0 C24.34011116 21.3855312 41.74485536 49.0625836 49.77392578 80.55859375 C49.95584473 81.25243164 50.13776367 81.94626953 50.32519531 82.66113281 C59.64653002 119.45794862 53.52621025 161.96974574 34.35595703 194.77734375 C29.96279065 202.05747193 25.24549377 209.03619483 19.77392578 215.55859375 C16.71366541 214.9557069 14.7059234 214.01368934 12.20751953 212.16015625 C11.5571875 211.680625 10.90685547 211.20109375 10.23681641 210.70703125 C9.5684375 210.20429688 8.90005859 209.7015625 8.21142578 209.18359375 C7.20305664 208.44109375 7.20305664 208.44109375 6.17431641 207.68359375 C3.17156158 205.45314627 0.37496098 203.25695163 -2.22607422 200.55859375 C-1.60861328 199.74519531 -0.99115234 198.93179688 -0.35498047 198.09375 C13.14428639 179.96677663 21.58283539 160.77086295 25.77392578 138.55859375 C25.95189697 137.61894775 26.12986816 136.67930176 26.31323242 135.71118164 C27.1505835 129.98107326 26.95851211 124.214317 26.96142578 118.43359375 C26.97367187 117.17804688 26.98591797 115.9225 26.99853516 114.62890625 C27.01552917 103.70741856 25.65002761 93.50012414 22.46142578 83.05859375 C22.24196289 82.33357666 22.0225 81.60855957 21.79638672 80.86157227 C12.65467062 51.32755169 -6.12480341 26.19190077 -32.22607422 9.55859375 C-33.33466797 8.85089844 -34.44326172 8.14320313 -35.58544922 7.4140625 C-41.84227018 3.64411162 -48.20882414 0.53425067 -54.97607422 -2.19140625 C-55.62930664 -2.46106201 -56.28253906 -2.73071777 -56.95556641 -3.00854492 C-70.68155944 -8.2684466 -84.69848498 -10.11303218 -99.31274414 -9.96289062 C-101.79200581 -9.94137647 -104.26838149 -9.96287634 -106.74755859 -9.98828125 C-135.1386672 -10.038121 -164.40005761 1.42920255 -185.47998047 20.609375 C-186.57517275 21.71402898 -187.65365812 22.83609622 -188.69873047 23.98828125 C-190.22607422 25.55859375 -190.22607422 25.55859375 -192.57763672 27.3515625 C-195.66924259 29.92790072 -198.08988762 32.82936467 -200.53857422 35.99609375 C-201.01641357 36.61081543 -201.49425293 37.22553711 -201.98657227 37.85888672 C-212.32646099 51.37881488 -220.1822291 66.29683223 -225.22607422 82.55859375 C-225.62181641 83.80125 -226.01755859 85.04390625 -226.42529297 86.32421875 C-229.28402188 96.35846715 -229.6232263 106.38252913 -229.66357422 116.74609375 C-229.66974762 117.41678894 -229.67592102 118.08748413 -229.68228149 118.77850342 C-229.84764007 146.73051208 -220.07667146 175.52450834 -202.65966797 197.45703125 C-201.22607422 199.55859375 -201.22607422 199.55859375 -201.22607422 202.55859375 C-203.26003448 204.17563683 -205.24030057 205.59178855 -207.41357422 206.99609375 C-208.57490981 207.76384404 -209.73508239 208.53335667 -210.89404297 209.3046875 C-211.74361572 209.8613208 -211.74361572 209.8613208 -212.61035156 210.42919922 C-214.46536467 211.68180638 -214.46536467 211.68180638 -216.90185547 213.90625 C-219.22607422 215.55859375 -219.22607422 215.55859375 -221.26904297 215.640625 C-237.36594243 206.74074246 -245.93157805 176.59974344 -251.19873047 160.1953125 C-262.00035253 121.95839181 -257.50350631 78.92756904 -238.60595703 44.00341797 C-218.24564881 7.92979331 -184.87734546 -19.9408976 -144.84716797 -31.53515625 C-93.40725486 -44.40900721 -40.91106886 -34.82579274 0 0 Z " fill="#FEFCFD" transform="translate(351.22607421875,132.44140625)"/>
<path d="M0 0 C0.98162109 -0.01611328 1.96324219 -0.03222656 2.97460938 -0.04882812 C16.4473586 -0.05774457 30.05341316 5.18042773 40.00390625 14.4609375 C46.20877325 21.28485156 51.67723259 28.54015508 54.6875 37.3125 C54.98398437 38.12847656 55.28046875 38.94445312 55.5859375 39.78515625 C60.37087237 54.68869192 58.00633694 71.25705293 51.0625 85.125 C41.97044194 100.2784301 28.30551253 109.64034226 11.26171875 113.921875 C-5.60460601 116.4812566 -21.49436626 112.2575218 -35.3125 102.3125 C-45.70132766 94.03777399 -53.98458119 80.4506918 -56.3125 67.3125 C-58.05834735 48.36148287 -54.23062209 32.97097373 -42 18 C-30.74592564 5.89182179 -16.2271429 -0.05265134 0 0 Z " fill="#FEFDFE" transform="translate(249.3125,188.6875)"/>
<path d="M0 0 C-3.03943279 9.11829837 -21.3446062 16.62097566 -29.60888672 20.84960938 C-41.10447116 26.38026017 -53.56836981 30.22131995 -66 33 C-66.7417749 33.17732666 -67.4835498 33.35465332 -68.24780273 33.53735352 C-76.36517761 35.27629349 -84.38629565 35.33828431 -92.64916992 35.31567383 C-95.03416744 35.31253726 -97.41789132 35.33596531 -99.80273438 35.36132812 C-114.32968355 35.42201355 -128.47263591 33.4483267 -142.4375 29.375 C-143.74025879 28.99541138 -143.74025879 28.99541138 -145.06933594 28.6081543 C-162.48062259 23.28593383 -180.32413576 14.17099114 -194 2 C-194 1.34 -194 0.68 -194 0 C-191.7669213 -1.77414253 -189.54199778 -3.39943661 -187.1875 -5 C-186.47335938 -5.48621826 -185.75921875 -5.97243652 -185.0234375 -6.47338867 C-171.90229518 -15.21656781 -157.96321932 -22.06164379 -143 -27 C-142.08605469 -27.30421875 -141.17210937 -27.6084375 -140.23046875 -27.921875 C-137.50172212 -28.74343313 -134.78592669 -29.39841172 -132 -30 C-131.38479492 -30.13535156 -130.76958984 -30.27070313 -130.13574219 -30.41015625 C-83.68500496 -40.23584816 -37.7268045 -27.607144 0 0 Z " fill="#FEFDFD" transform="translate(347,370)"/>
</svg>
